<svg width="274" height="245" viewBox="0 0 274 245" fill="none" xmlns="http://www.w3.org/2000/svg">
<g clip-path="url(#clip0)">
<path d="M33.4167 190.847L30.3564 178.777C24.9302 176.478 19.3786 174.486 13.7281 172.812L13.3417 178.421L11.7749 172.241C4.76727 170.24 0 169.359 0 169.359C0 169.359 6.43948 193.846 19.9458 212.566L35.6836 215.33L23.4574 217.093C25.157 219.138 26.9836 221.073 28.9263 222.889C48.5742 241.126 70.4583 249.493 77.8058 241.577C85.1533 233.662 75.1818 212.461 55.5339 194.224C49.4428 188.571 41.7912 184.034 34.1319 180.463L33.4167 190.847Z" fill="#E6E6E6"/>
<path d="M62.5216 177.74L66.141 165.826C62.6846 161.052 58.9617 156.478 54.9901 152.124L51.7598 156.726L53.6129 150.626C48.6484 145.291 45.0231 142.072 45.0231 142.072C45.0231 142.072 37.878 166.362 39.7632 189.369L51.8065 199.87L40.4291 195.06C40.8272 197.688 41.3903 200.29 42.115 202.848C49.5075 228.615 63.9161 247.089 74.2975 244.111C84.6789 241.133 87.1018 217.83 79.7093 192.063C77.4176 184.075 73.2127 176.236 68.5018 169.22L62.5216 177.74Z" fill="#E6E6E6"/>
<path d="M234.821 226.471L237.098 224.012C236.822 222.45 236.459 220.904 236.009 219.383L234.686 220.118L235.851 218.859C235.277 216.983 234.777 215.777 234.777 215.777C234.777 215.777 230.191 220.819 227.943 226.611L229.624 230.57L227.435 228.068C227.222 228.751 227.053 229.447 226.927 230.152C225.688 237.26 227.005 243.427 229.868 243.927C232.732 244.426 236.059 239.068 237.299 231.96C237.639 229.689 237.63 227.379 237.27 225.111L234.821 226.471Z" fill="#E6E6E6"/>
<path d="M268.509 231.335L271.73 230.407C272.302 228.927 272.789 227.416 273.19 225.881L271.678 225.826L273.327 225.351C273.804 223.448 274 222.158 274 222.158C274 222.158 267.468 224.103 262.549 227.9L261.942 232.158L261.362 228.884C260.826 229.359 260.321 229.867 259.85 230.406C255.114 235.85 253.054 241.81 255.247 243.718C257.441 245.626 263.058 242.759 267.793 237.314C269.259 235.546 270.445 233.564 271.309 231.437L268.509 231.335Z" fill="#E6E6E6"/>
<path d="M178.478 16.6225V227.336C178.477 231.745 176.725 235.972 173.608 239.089C170.491 242.206 166.263 243.958 161.855 243.959H79.9666C75.5571 243.96 71.3279 242.209 68.2093 239.091C65.0907 235.974 63.3379 231.746 63.3367 227.336V16.6225C63.338 12.2131 65.0907 7.98484 68.2093 4.86759C71.3279 1.75034 75.5571 -0.000557147 79.9666 -1.05967e-06H89.9001C89.4124 1.19948 89.2268 2.5004 89.3596 3.78842C89.4923 5.07644 89.9395 6.31212 90.6617 7.38686C91.3839 8.4616 92.3591 9.34249 93.5015 9.95209C94.6439 10.5617 95.9186 10.8814 97.2135 10.883H143.901C145.196 10.8814 146.47 10.5617 147.613 9.95212C148.755 9.34251 149.73 8.46163 150.452 7.38689C151.175 6.31215 151.622 5.07646 151.755 3.78843C151.887 2.5004 151.702 1.19948 151.214 4.19258e-06H161.855C166.263 0.000895776 170.491 1.75248 173.608 4.86961C176.725 7.98674 178.477 12.2142 178.478 16.6225Z" fill="#3F3D56"/>
<path d="M109.369 87.2716C109.368 85.8281 109.748 84.41 110.47 83.1599C111.192 81.9098 112.23 80.8719 113.481 80.1506C112.231 79.4284 110.812 79.048 109.369 79.0476C107.925 79.0473 106.506 79.4271 105.256 80.1489C104.005 80.8706 102.967 81.9088 102.245 83.1591C101.523 84.4095 101.143 85.8278 101.143 87.2716C101.143 88.7154 101.523 90.1338 102.245 91.3841C102.967 92.6345 104.005 93.6727 105.256 94.3944C106.506 95.1161 107.925 95.4959 109.369 95.4956C110.812 95.4953 112.231 95.1149 113.481 94.3926C112.23 93.6714 111.192 92.6335 110.47 91.3834C109.748 90.1333 109.368 88.7152 109.369 87.2716Z" fill="white"/>
<path d="M119.708 87.2716C119.707 85.8281 120.087 84.41 120.809 83.1599C121.531 81.9098 122.569 80.8719 123.82 80.1506C122.57 79.4284 121.151 79.048 119.707 79.0476C118.264 79.0473 116.845 79.4271 115.595 80.1489C114.344 80.8706 113.306 81.9088 112.584 83.1591C111.862 84.4095 111.481 85.8278 111.481 87.2716C111.481 88.7154 111.862 90.1338 112.584 91.3841C113.306 92.6345 114.344 93.6727 115.595 94.3944C116.845 95.1161 118.264 95.4959 119.707 95.4956C121.151 95.4953 122.57 95.1149 123.82 94.3926C122.569 93.6714 121.531 92.6335 120.809 91.3834C120.087 90.1333 119.707 88.7152 119.708 87.2716Z" fill="white"/>
<path d="M129.812 95.4956C134.354 95.4956 138.036 91.8136 138.036 87.2717C138.036 82.7297 134.354 79.0477 129.812 79.0477C125.27 79.0477 121.588 82.7297 121.588 87.2717C121.588 91.8136 125.27 95.4956 129.812 95.4956Z" fill="#39A8B2"/>
<path d="M157.701 141.094H84.1876V141.782H157.701V141.094Z" fill="white"/>
<path d="M86.5092 136.795C87.7913 136.795 88.8307 135.756 88.8307 134.474C88.8307 133.192 87.7913 132.152 86.5092 132.152C85.2271 132.152 84.1877 133.192 84.1877 134.474C84.1877 135.756 85.2271 136.795 86.5092 136.795Z" fill="#39A8B2"/>
<path d="M157.701 164.308H84.1876V164.996H157.701V164.308Z" fill="white"/>
<path d="M86.5092 160.009C87.7913 160.009 88.8307 158.97 88.8307 157.688C88.8307 156.406 87.7913 155.366 86.5092 155.366C85.2271 155.366 84.1877 156.406 84.1877 157.688C84.1877 158.97 85.2271 160.009 86.5092 160.009Z" fill="#39A8B2"/>
<path d="M143.556 112.958H95.6242C95.1679 112.957 94.7304 112.776 94.4078 112.453C94.0851 112.131 93.9036 111.693 93.9031 111.237V63.3065C93.9036 62.8502 94.0851 62.4127 94.4078 62.0901C94.7304 61.7674 95.1679 61.5859 95.6242 61.5854H143.556C144.012 61.5859 144.45 61.7674 144.772 62.0901C145.095 62.4127 145.277 62.8502 145.277 63.3065V111.237C145.277 111.693 145.095 112.131 144.772 112.453C144.45 112.776 144.012 112.957 143.556 112.958ZM95.6242 62.2738C95.3504 62.2741 95.0879 62.383 94.8943 62.5766C94.7007 62.7702 94.5918 63.0327 94.5915 63.3065V111.237C94.5918 111.511 94.7007 111.773 94.8943 111.967C95.0879 112.16 95.3504 112.269 95.6242 112.27H143.556C143.83 112.269 144.092 112.16 144.286 111.967C144.479 111.773 144.588 111.511 144.589 111.237V63.3065C144.588 63.0327 144.479 62.7702 144.286 62.5766C144.092 62.383 143.83 62.2741 143.556 62.2738H95.6242Z" fill="white"/>
<path d="M156.324 179.741H133.155C132.395 179.741 131.778 180.358 131.778 181.118V189.198C131.778 189.958 132.395 190.575 133.155 190.575H156.324C157.085 190.575 157.701 189.958 157.701 189.198V181.118C157.701 180.358 157.085 179.741 156.324 179.741Z" fill="#39A8B2"/>
<path d="M274 243.622H0.273682V244.31H274V243.622Z" fill="#3F3D56"/>
<path d="M221.858 111.897C221.858 111.897 220.905 117.932 221.858 118.885C222.811 119.838 215.822 127.779 215.822 127.779L210.105 119.838C210.105 119.838 212.646 115.708 211.693 112.215L221.858 111.897Z" fill="#FFB8B8"/>
<path d="M200.895 157.318L196.764 201.469L198.351 235.774L205.974 233.55L206.293 202.74L215.188 176.059L220.587 204.964L219.95 234.186L229.48 234.504L230.116 202.106L231.233 156.856L200.895 157.318Z" fill="#2F2E41"/>
<path d="M220.269 233.233V240.221C220.269 240.221 218.681 245.303 223.764 244.986C228.846 244.668 228.528 242.445 228.528 242.445L226.622 233.869L220.269 233.233Z" fill="#2F2E41"/>
<path d="M205.658 233.233V240.221C205.658 240.221 207.246 245.303 202.164 244.986C197.082 244.668 197.399 242.445 197.399 242.445L199.305 233.869L205.658 233.233Z" fill="#2F2E41"/>
<path d="M216.458 115.391C220.493 115.391 223.764 112.12 223.764 108.085C223.764 104.05 220.493 100.78 216.458 100.78C212.423 100.78 209.152 104.05 209.152 108.085C209.152 112.12 212.423 115.391 216.458 115.391Z" fill="#FFB8B8"/>
<path d="M216.14 124.285L216.775 121.108H218.364L221.435 116.691L224.081 119.202L224.716 134.131H207.564L209.152 118.25L211.465 116.69C211.465 116.69 211.058 122.061 215.505 122.061L216.14 124.285Z" fill="#575A89"/>
<path d="M209.47 120.791C209.47 120.791 212.1 124.121 216.026 123.885C219.952 123.649 223.764 120.473 223.764 120.473L229.163 161.765C229.163 161.765 223.128 162.401 221.222 159.224L206.611 158.907L206.928 120.473L209.47 120.791Z" fill="#D0CDE1"/>
<path d="M211.614 116.143L197.717 123.014L201.211 142.707C201.211 142.707 202.481 150.013 201.211 152.872C199.94 155.73 198.67 174.788 198.67 174.788C198.67 174.788 212.964 176.377 211.058 153.825C209.152 131.273 211.614 116.143 211.614 116.143Z" fill="#2F2E41"/>
<path d="M203.117 163.671L205.023 165.577C205.023 165.577 210.74 175.424 213.281 171.93C215.822 168.436 208.834 162.401 208.834 162.401L205.658 159.86L203.117 163.671Z" fill="#FFB8B8"/>
<path d="M221.442 116.143L235.199 123.014L230.434 146.519C230.434 146.519 230.752 154.142 232.34 158.272C233.928 162.401 233.293 174.471 233.293 174.471C233.293 174.471 231.387 181.776 227.258 163.671C223.128 145.566 221.442 116.143 221.442 116.143Z" fill="#2F2E41"/>
<path d="M232.022 152.236H229.163C229.163 152.236 219.634 150.966 220.269 154.778C220.905 158.589 229.799 157.636 229.799 157.636L233.293 157.319L232.022 152.236Z" fill="#FFB8B8"/>
<path d="M199.623 122.061L197.399 123.014C197.399 123.014 195.176 127.779 194.858 129.367C194.54 130.955 190.729 150.013 191.682 152.236C192.634 154.46 202.164 166.212 202.164 166.212L207.564 160.495L199.623 149.695L201.846 136.037L199.623 122.061Z" fill="#2F2E41"/>
<path d="M230.434 122.379L234.637 122.733L235.516 123.014C235.516 123.014 244.41 147.154 242.504 150.966C240.599 154.778 232.34 161.766 232.34 161.766L230.116 151.919L234.246 148.107L230.116 135.402L230.434 122.379Z" fill="#2F2E41"/>
<path d="M222.639 102.452C222.639 102.452 224.55 98.8657 220.345 98.5396C220.345 98.5396 216.523 96.2574 213.465 98.8657C213.465 98.8657 210.789 98.2136 210.024 100.17C210.024 100.17 209.642 99.1917 210.789 98.5396C210.789 98.5396 208.113 97.8876 208.113 101.148C208.113 101.148 206.966 104.408 208.113 107.343C209.26 110.277 209.642 110.603 209.642 110.603C209.642 110.603 207.758 104.451 212.345 104.125C216.932 103.799 222.065 100.985 222.448 104.571C222.83 108.158 223.594 109.136 223.594 109.136C223.594 109.136 227.035 103.919 222.639 102.452Z" fill="#2F2E41"/>
</g>
<defs>
<clipPath id="clip0">
<rect width="274" height="245" fill="white"/>
</clipPath>
</defs>
</svg>
