<svg width="277" height="308" viewBox="0 0 277 308" fill="none" xmlns="http://www.w3.org/2000/svg">
<g clip-path="url(#clip0)">
<path d="M188.42 190.812C339.455 292.208 290.368 329.991 94.21 295.579C42.9567 286.588 -5.72205e-06 248.673 -5.72205e-06 190.812C-5.72205e-06 132.95 42.1793 86.0439 94.21 86.0439C146.241 86.0439 140.492 158.635 188.42 190.812Z" fill="#3F3D56"/>
<path opacity="0.1" d="M201.923 289.593C234.876 289.593 261.59 287.194 261.59 284.236C261.59 281.278 234.876 278.879 201.923 278.879C168.971 278.879 142.257 281.278 142.257 284.236C142.257 287.194 168.971 289.593 201.923 289.593Z" fill="black"/>
<path opacity="0.1" d="M84.2482 113.032C101.714 113.032 115.873 110.634 115.873 107.676C115.873 104.717 101.714 102.319 84.2482 102.319C66.7823 102.319 52.6234 104.717 52.6234 107.676C52.6234 110.634 66.7823 113.032 84.2482 113.032Z" fill="black"/>
<path opacity="0.1" d="M82.5907 120.862C69.0215 120.859 55.7284 124.708 44.2468 131.964C32.7653 139.22 23.5638 149.587 17.7052 161.868C24.4396 154.403 32.66 148.439 41.8352 144.36C51.0104 140.282 60.9363 138.181 70.9715 138.192C110.687 138.192 142.885 170.498 142.885 210.348C142.901 221.129 140.499 231.775 135.857 241.498C147.88 228.236 154.53 210.945 154.504 193.018C154.504 153.168 122.307 120.862 82.5907 120.862Z" fill="black"/>
<path opacity="0.3" d="M142.885 210.033C142.901 220.814 140.499 231.46 135.857 241.183C129.123 248.648 120.902 254.612 111.727 258.69C102.552 262.768 92.6259 264.87 82.5907 264.859C42.875 264.859 10.6771 232.552 10.6771 192.703C10.6609 181.922 13.0629 171.276 17.7052 161.553C24.4396 154.088 32.66 148.124 41.8352 144.045C51.0104 139.967 60.9363 137.866 70.9715 137.877C110.687 137.877 142.885 170.183 142.885 210.033Z" fill="#39A8B2"/>
<path d="M82.5908 265.213C42.7426 265.213 10.3237 232.685 10.3237 192.703C10.2948 181.867 12.7093 171.166 17.3866 161.4C23.2739 149.059 32.5207 138.641 44.0586 131.349C55.5966 124.058 68.955 120.19 82.5908 120.192C122.439 120.192 154.858 152.72 154.858 192.703C154.858 202.225 152.99 211.654 149.358 220.452C145.726 229.25 140.403 237.243 133.693 243.977C126.982 250.71 119.015 256.051 110.247 259.695C101.479 263.339 92.0812 265.214 82.5908 265.213V265.213ZM82.5908 120.901C55.2101 120.901 29.8659 136.918 18.0239 161.706C13.3924 171.377 11.0016 181.974 11.0304 192.703C11.0304 232.294 43.1322 264.504 82.5908 264.504C91.9884 264.505 101.294 262.648 109.976 259.04C118.659 255.432 126.548 250.143 133.193 243.475C139.838 236.808 145.109 228.892 148.705 220.181C152.301 211.469 154.152 202.132 154.151 192.703C154.151 153.111 122.049 120.901 82.5908 120.901V120.901Z" fill="white"/>
<path d="M247.117 266.129C241.894 272.983 242.491 282.246 242.491 282.246C242.491 282.246 251.556 280.396 256.779 273.543C262.002 266.689 261.405 257.426 261.405 257.426C261.405 257.426 252.34 259.275 247.117 266.129Z" fill="#D0CDE1"/>
<path d="M250.539 267.669C249.526 276.236 242.665 282.462 242.665 282.462C242.665 282.462 237.447 274.798 238.46 266.23C239.474 257.662 246.335 251.436 246.335 251.436C246.335 251.436 251.553 259.101 250.539 267.669Z" fill="#39A8B2"/>
<path d="M61.0685 66.9688C77.457 66.9688 90.7425 53.6385 90.7425 37.1949C90.7425 20.7512 77.457 7.421 61.0685 7.421C44.6801 7.421 31.3946 20.7512 31.3946 37.1949C31.3946 53.6385 44.6801 66.9688 61.0685 66.9688Z" fill="#FF6584"/>
<path d="M125.404 67.5513C125.418 97.2915 107.802 107.683 86.068 107.694C85.5631 107.694 85.0607 107.688 84.5607 107.677C83.5534 107.656 82.5566 107.61 81.5702 107.541C61.9534 106.157 46.7064 95.248 46.693 67.5897C46.6792 38.9667 83.121 2.82735 85.854 0.155182C85.8564 0.155182 85.8564 0.155181 85.8589 0.152753C85.9627 0.0509115 86.0158 0 86.0158 0C86.0158 0 125.39 37.8135 125.404 67.5513Z" fill="#39A8B2"/>
<path d="M84.6334 103.145L99.0174 82.959L84.5982 105.36L84.5607 107.677C83.5534 107.656 82.5566 107.61 81.5702 107.541L83.1066 77.7875L83.0944 77.5573L83.1209 77.5136L83.2669 74.7021L68.7897 52.2592L83.3094 72.596L83.3459 73.1922L84.5065 50.7126L72.1111 27.5197L84.6568 46.762L85.854 0.155188L85.8588 8.39233e-05L85.8588 0.152759L85.6738 36.907L97.9929 22.3302L85.6221 40.0723L85.3058 60.2006L96.811 40.8788L85.2614 63.1599L85.0856 74.3523L101.783 47.4565L85.0223 78.2567L84.6334 103.145Z" fill="#3F3D56"/>
<path d="M202.453 84.5908C198.681 78.196 191.219 77.898 191.219 77.898C191.219 77.898 183.947 76.965 179.283 86.7043C174.935 95.7821 168.934 104.547 178.317 106.672L180.011 101.379L181.061 107.066C182.397 107.162 183.737 107.185 185.075 107.135C195.123 106.809 204.692 107.23 204.384 103.612C203.975 98.8031 206.083 90.7438 202.453 84.5908Z" fill="#2F2E41"/>
<path d="M185.813 144.596L186.783 154.331L209.26 151.898L209.745 144.596H185.813Z" fill="#A0616A"/>
<path d="M183.387 149.95L182.74 155.629C182.74 155.629 175.302 166.013 175.949 183.861C176.596 201.709 165.761 281.05 173.523 281.699C181.285 282.348 195.192 283.322 195.839 280.888C196.486 278.454 197.779 186.133 197.779 186.133C197.779 186.133 201.175 281.003 206.997 281.328C212.818 281.652 232.385 282.301 232.385 279.867C232.385 277.433 215.244 168.772 215.244 168.772L212.495 159.686L209.746 148.49C209.746 148.49 192.605 151.411 187.915 150.275C183.226 149.139 183.387 149.95 183.387 149.95Z" fill="#2F2E41"/>
<path d="M191.149 105.007C196.865 105.007 201.498 100.358 201.498 94.6225C201.498 88.8875 196.865 84.2384 191.149 84.2384C185.433 84.2384 180.8 88.8875 180.8 94.6225C180.8 100.358 185.433 105.007 191.149 105.007Z" fill="#A0616A"/>
<path d="M209.26 111.821L207.296 114.69L206.038 116.525L203.924 119.609L193.413 120.421C193.413 120.421 190.86 119.593 187.913 118.384C186.825 117.937 185.682 117.437 184.595 116.906C180.379 114.852 176.997 112.345 180.8 110.685C181.475 110.394 182.124 110.045 182.739 109.641C183.298 109.274 183.819 108.851 184.293 108.378C185.267 107.399 185.988 106.195 186.394 104.873C186.8 103.55 186.878 102.148 186.621 100.788L196.809 99.3279C196.513 101.921 199.083 104.749 201.963 107.058C202.909 107.818 203.89 108.521 204.814 109.141C207.234 110.767 209.26 111.821 209.26 111.821Z" fill="#A0616A"/>
<path d="M195.354 114.904C195.354 114.904 185.409 113.2 183.145 109.631C183.145 109.631 173.361 110.848 174.17 116.04C174.978 121.232 183.064 149.626 183.064 149.626C183.064 149.626 203.277 145.732 210.716 148.652L215.244 112.47C215.244 112.47 213.626 108.901 210.554 109.874C207.482 110.848 206.269 109.955 206.269 109.955C206.269 109.955 202.792 114.904 195.354 114.904Z" fill="#D0CDE1"/>
<path d="M204.409 171.854C204.409 171.854 211.363 179.643 207.482 180.941C203.601 182.239 198.911 175.749 198.911 175.749L204.409 171.854Z" fill="#A0616A"/>
<path d="M206.673 172.503C206.673 172.503 201.013 176.398 203.116 178.994C205.218 181.59 212.495 176.722 212.495 175.749C212.495 174.775 206.673 172.503 206.673 172.503Z" fill="#A0616A"/>
<path d="M192.766 151.411L188.077 152.222L185.004 129.344C185.182 125.194 185.045 121.036 184.595 116.906C184.252 114.148 183.68 111.497 182.739 109.641C183.298 109.274 183.819 108.851 184.293 108.378C185.418 110.168 187.472 113.958 187.913 118.384C188.029 119.493 188.029 120.61 187.915 121.719C187.106 129.344 187.268 130.805 187.268 130.805L192.766 151.411Z" fill="#2F2E41"/>
<path d="M181.932 111.01C181.932 111.01 174.332 108.901 173.685 113.444C173.038 117.987 173.847 129.669 175.625 134.05C177.404 138.431 183.549 152.709 183.549 152.709C183.549 152.709 194.707 166.987 195.192 170.394C195.677 173.802 198.103 177.371 198.103 177.371L205.865 172.341L190.664 146.543L184.034 128.695C184.034 128.695 186.783 112.47 181.932 111.01Z" fill="#D0CDE1"/>
<path d="M211.686 111.659L215.244 112.47C215.244 112.47 218.478 126.424 217.184 133.888C215.89 141.351 215.729 143.947 215.729 143.947L214.597 165.202C214.597 165.202 214.92 178.831 212.656 176.722C210.392 174.613 205.865 173.639 205.865 173.639C205.865 173.639 206.35 167.636 208.128 166.176C208.128 166.176 210.231 154.98 208.937 150.113C207.643 145.245 211.686 111.659 211.686 111.659Z" fill="#D0CDE1"/>
<path d="M212.98 127.397L208.856 151.33L206.35 150.275L210.716 127.397L206.038 116.525L201.963 107.058C202.909 107.818 203.89 108.521 204.813 109.141L207.296 114.69L212.98 127.397Z" fill="#2F2E41"/>
<path d="M200.786 83.9743L193.413 80.0996L183.232 81.6847L181.126 91.0194L186.369 90.817L187.834 87.3875V90.7606L190.254 90.667L191.658 85.2071L192.536 91.0194L201.137 90.8432L200.786 83.9743Z" fill="#2F2E41"/>
<path d="M186.222 284.236C188.997 284.236 191.246 283.39 191.246 282.346C191.246 281.301 188.997 280.455 186.222 280.455C183.447 280.455 181.197 281.301 181.197 282.346C181.197 283.39 183.447 284.236 186.222 284.236Z" fill="#2F2E41"/>
<path d="M220.137 284.236C222.912 284.236 225.162 283.39 225.162 282.346C225.162 281.301 222.912 280.455 220.137 280.455C217.362 280.455 215.113 281.301 215.113 282.346C215.113 283.39 217.362 284.236 220.137 284.236Z" fill="#2F2E41"/>
<path d="M93.1236 230.023C87.984 233.379 82.0611 235.332 75.9394 235.69C69.8178 236.048 63.7089 234.798 58.2158 232.063L58.9935 230.471C65.6148 233.735 73.1196 234.732 80.3592 233.309C87.5987 231.886 94.1741 228.122 99.0788 222.593C103.984 217.064 106.947 210.074 107.517 202.694C108.086 195.315 106.229 187.951 102.231 181.73C98.2321 175.51 92.3122 170.776 85.377 168.252C78.4419 165.728 70.8736 165.555 63.8307 167.757C56.7877 169.96 50.6582 174.418 46.3804 180.448C42.1025 186.479 39.9121 193.749 40.1443 201.148L38.3783 201.202C38.1826 194.977 39.6165 188.809 42.537 183.314C45.4575 177.818 49.7625 173.187 55.023 169.881C60.2835 166.575 66.3157 164.71 72.5183 164.472C78.7209 164.235 84.8773 165.632 90.3738 168.526C95.8703 171.42 100.515 175.708 103.845 180.964C107.174 186.22 109.073 192.26 109.351 198.482C109.629 204.704 108.278 210.89 105.43 216.424C102.583 221.958 98.3398 226.647 93.1236 230.023V230.023Z" fill="white"/>
<path d="M77.1424 197.966C71.918 199.126 64.965 199.833 59.8987 199.095L66.2586 203.954L48.4539 215.476L49.4115 216.966L67.2162 205.444L69.0061 213.263C70.4253 208.328 73.9351 202.264 77.1424 197.966Z" fill="white"/>
</g>
<defs>
<clipPath id="clip0">
<rect width="277" height="308" fill="white"/>
</clipPath>
</defs>
</svg>
